# xmcd
#
# Track frame offsets: 
#        150
#        18134
#        35146
#        52307
#        70119
#        91125
#        117199
#        135368
#        152301
#        170816
#        190587
#        213512
#        237686
#        265172
#
# Disc length: 3722 seconds
#
# Revision: 4
# Processed by: cddbd v1.4PL0 Copyright (c) Steve Scherf et al.
# Submitted via: ExactAudioCopy v0.90b4
#
DISCID=bf0e880e
DTITLE=Silence 4 - Only Pain Is Real
DYEAR=2000
DGENRE=Rock
TTITLE0=To Give
TTITLE1=Not Brave Enough
TTITLE2=Empty Happy Song
TTITLE3=Only Pain Is Real
TTITLE4=I'm Not Perfect
TTITLE5=Sleepwalkin Convict
TTITLE6=Cruel II
TTITLE7=Ceilings
TTITLE8=Where Are You¿
TTITLE9=Alright
TTITLE10=Search Me Not
TTITLE11=Don't II
TTITLE12=Take Me Away
TTITLE13=Wild Oscar (Part I)
EXTD=YEAR: 2000 ID3G: 17
EXTT0=
EXTT1=
EXTT2=
EXTT3=
EXTT4=
EXTT5=
EXTT6=
EXTT7=
EXTT8=
EXTT9=
EXTT10=
EXTT11=
EXTT12=
EXTT13=
PLAYORDER=
